<svg xmlns="http://www.w3.org/2000/svg" xmlns:xlink="http://www.w3.org/1999/xlink" version="1.1" data-diagram-type="CLASS" style="width:418px;height:306px;" width="418px" height="306px" viewBox="0 0 418 306" zoomAndPan="magnify" preserveAspectRatio="none" contentStyleType="text/css"><?plantuml 1.2026.8?><defs/><g font-family="sans-serif" lengthAdjust="spacing"><!--class KITAP--><g class="entity" data-qualıfıed-name="KITAP" id="ent0001" data-source-lıne="2"><rect x="24.5" y="12" width="143.561" height="112.243" fill="#E8EEF5" style="stroke:#1D5AA8;stroke-width:0.5;" rx="2.5" ry="2.5"/><rect x="24.5" y="12" width="143.561" height="27.249" fill="#1D5AA8" style="stroke:#1D5AA8;stroke-width:0.5;" rx="2.5" ry="2.5"/><rect x="24.5" y="36.749" width="143.561" height="2.5" fill="#1D5AA8" style="stroke:#1D5AA8;stroke-width:0.5;"/><rect x="24.5" y="12" width="143.561" height="112.243" fill="none" style="stroke:#1D5AA8;stroke-width:0.5;" rx="2.5" ry="2.5"/><text x="74.608" y="31.07" fill="#FFF" font-size="15" textLength="43.345" font-family="Arial">KITAP</text><line x1="25.5" y1="39.249" x2="167.061" y2="39.249" style="stroke:#1D5AA8;stroke-width:0.5;"/><g data-vısıbılıty-modıfıer="IE_MANDATORY"><ellipse cx="35.5" cy="53.373" rx="3" ry="3" fill="#000" style="stroke:#000;stroke-width:1;"/></g><text x="44.5" y="57.318" fill="#000" font-size="15" textLength="117.561" font-family="Arial">isbn : metin «PK»</text><line x1="25.5" y1="64.497" x2="167.061" y2="64.497" style="stroke:#1D5AA8;stroke-width:1;"/><g data-vısıbılıty-modıfıer="IE_MANDATORY"><ellipse cx="35.5" cy="78.621" rx="3" ry="3" fill="#000" style="stroke:#000;stroke-width:1;"/></g><text x="44.5" y="82.567" fill="#000" font-size="15" textLength="87.532" font-family="Arial">baslik : metin</text><g data-vısıbılıty-modıfıer="IE_MANDATORY"><ellipse cx="35.5" cy="95.87" rx="3" ry="3" fill="#000" style="stroke:#000;stroke-width:1;"/></g><text x="44.5" y="99.815" fill="#000" font-size="15" textLength="85.862" font-family="Arial">yazar : metin</text><text x="44.5" y="117.064" fill="#000" font-size="15" textLength="100.027" font-family="Arial">basimYili : sayı</text></g><!--class NUSHA--><g class="entity" data-qualıfıed-name="NUSHA" id="ent0002" data-source-lıne="9"><rect x="6" y="178" width="181.083" height="112.243" fill="#E8EEF5" style="stroke:#1D5AA8;stroke-width:0.5;" rx="2.5" ry="2.5"/><rect x="6" y="178" width="181.083" height="27.249" fill="#1D5AA8" style="stroke:#1D5AA8;stroke-width:0.5;" rx="2.5" ry="2.5"/><rect x="6" y="202.749" width="181.083" height="2.5" fill="#1D5AA8" style="stroke:#1D5AA8;stroke-width:0.5;"/><rect x="6" y="178" width="181.083" height="112.243" fill="none" style="stroke:#1D5AA8;stroke-width:0.5;" rx="2.5" ry="2.5"/><text x="70.288" y="197.07" fill="#FFF" font-size="15" textLength="52.507" font-family="Arial">NUSHA</text><line x1="7" y1="205.249" x2="186.083" y2="205.249" style="stroke:#1D5AA8;stroke-width:0.5;"/><g data-vısıbılıty-modıfıer="IE_MANDATORY"><ellipse cx="17" cy="219.373" rx="3" ry="3" fill="#000" style="stroke:#000;stroke-width:1;"/></g><text x="26" y="223.318" fill="#000" font-size="15" textLength="155.083" font-family="Arial">barkodNo : metin «PK»</text><line x1="7" y1="230.497" x2="186.083" y2="230.497" style="stroke:#1D5AA8;stroke-width:1;"/><g data-vısıbılıty-modıfıer="IE_MANDATORY"><ellipse cx="17" cy="244.621" rx="3" ry="3" fill="#000" style="stroke:#000;stroke-width:1;"/></g><text x="26" y="248.567" fill="#000" font-size="15" textLength="116.719" font-family="Arial">isbn : metin «FK»</text><g data-vısıbılıty-modıfıer="IE_MANDATORY"><ellipse cx="17" cy="261.87" rx="3" ry="3" fill="#000" style="stroke:#000;stroke-width:1;"/></g><text x="26" y="265.815" fill="#000" font-size="15" textLength="91.699" font-family="Arial">durum : metin</text><text x="26" y="283.064" fill="#000" font-size="15" textLength="77.52" font-family="Arial">ciltNo : sayı</text></g><g class="entity" data-qualıfıed-name="GMN4" id="ent0005" data-source-lıne="19"><path d="M187,28.5 L187,64 L168.816,68 L187,72 L187,107.494 A0,0 0 0 0 187,107.494 L402.253,107.494 A0,0 0 0 0 402.253,107.494 L402.253,38.5 L392.253,28.5 L187,28.5 A0,0 0 0 0 187,28.5" style="stroke:#B07D21;stroke-width:0.5;" fill="#F5DFB8"/><path d="M392.253,28.5 L392.253,38.5 L402.253,38.5 L392.253,28.5" style="stroke:#B07D21;stroke-width:0.5;" fill="#F5DFB8"/><text x="193" y="47.57" fill="#000" font-size="15" textLength="140.046" font-family="Arial">varlık adı (üst bölme)</text><text x="193" y="64.818" fill="#000" font-size="15" textLength="194.253" font-family="Arial">birincil anahtar (çizginin üstü)</text><text x="193" y="82.067" fill="#000" font-size="15" textLength="180.901" font-family="Arial">diğer nitelikler (çizginin altı)</text><ellipse cx="198.5" cy="94.994" rx="2.5" ry="2.5" fill="#000"/><text x="205" y="99.315" fill="#000" font-size="15" textLength="140.061" font-family="Arial">işareti: zorunlu nitelik</text></g><g class="entity" data-qualıfıed-name="GMN7" id="ent0008" data-source-lıne="26"><path d="M205.5,212 L205.5,230 L187.305,234 L205.5,238 L205.5,256.497 A0,0 0 0 0 205.5,256.497 L381.605,256.497 A0,0 0 0 0 381.605,256.497 L381.605,222 L371.605,212 L205.5,212 A0,0 0 0 0 205.5,212" style="stroke:#B07D21;stroke-width:0.5;" fill="#F5DFB8"/><path d="M371.605,212 L371.605,222 L381.605,222 L371.605,212" style="stroke:#B07D21;stroke-width:0.5;" fill="#F5DFB8"/><text x="211.5" y="231.07" fill="#000" font-size="15" textLength="147.598" font-family="Arial">yabancı anahtar: isbn,</text><text x="211.5" y="248.318" fill="#000" font-size="15" textLength="155.105" font-family="Arial">nüshayı kitabına bağlar</text></g><g class="link" data-entity-1="ent0001" data-entity-2="ent0002" id="lnk3" data-lınk-type="crowfoot"><line x1="92.5" y1="128.066" x2="100.5" y2="128.066" style="stroke:#5A6B78;stroke-width:1;"/><line x1="92.5" y1="131.066" x2="100.5" y2="131.066" style="stroke:#5A6B78;stroke-width:1;"/><line x1="96.5" y1="132.066" x2="96.5" y2="124.066" style="stroke:#5A6B78;stroke-width:1;"/><line x1="96.5" y1="169.8" x2="102.5" y2="177.8" style="stroke:#5A6B78;stroke-width:1;"/><line x1="96.5" y1="169.8" x2="90.5" y2="177.8" style="stroke:#5A6B78;stroke-width:1;"/><line x1="96.5" y1="169.8" x2="96.5" y2="177.8" style="stroke:#5A6B78;stroke-width:1;"/><line x1="100.5" y1="167.8" x2="92.5" y2="167.8" style="stroke:#5A6B78;stroke-width:1;"/><path d="M96.5,132.066 C96.5,149.374 96.5,152.483 96.5,169.8" style="stroke:#5A6B78;stroke-width:1;" fill="none"/><text x="98.5" y="156.194" fill="#000" font-size="13" textLength="41.907" font-family="Arial">sahiptir</text></g><?plantuml-src ZLJDJjj04BxxAQPmQ4540gf0X11I2aLKe0YHSkXnx5qdewntq_KQcf0-IuuzvyA9MynxTMmdO4mQDr8aQ-VRxsTcj1-65diHWiAHIHp4aNIeqVFY0UaXMen0o10JvSwDTXsC9BGjeLfTxz9OmbwpL8pxACmzwHw4g69PglWO37hM95gS6cKiE8iwvfBKheHgMslk2y1c4m_ymrQr-AhxkUow7JXZlnWhf5rStnDDnDOxICN6fcn96POZtCOom5Ykvrg2QjbkPC0DxgaAty7-xhw_4bPb3FDVEUerMaS13L6xzIRBm5gZP-ZGhytzWghbwygVYTI1lAAG__ejxsAqVH8IGcESRtwL4vugZEFrHWf8hOiSTY6HcTw1LtDc-_MszRdBW6oWPDbarw6hwLO1gJN9Yqbtv4QrwrkW_fllZ30oMhoXzNSFnVxU6l2x_MkAq6-LWtVCYb0BM0MrGlaZVBqvW_bZEfLAMZg2ExGgdGrsG9EJYlZ39qiw80NyClKTsXqOyTBf89szdf2Yv-c0F7u-s3niN7xxthxU08mX_u873s0RAFOr704_SgJX-FZwykI4pnkDlCXxp7BBSduqmZ7QqWb3AFh1MdmMuoYTURzV53kttOjshfX_BHHzj0CZEkQVgXLBvqLn6qHYawWapVbTJhFKBN9D9et6v64XcHNxD7HaFKzply5Ih-_0X4KJc6NHN431pViqVueT-FD75ScjB5sbpmpuG-CUQNQMGUTF6KeGZyekfyCpAyDGkNIsLGHxdl9hxdYYOsCJhPBb5UwOWCnUrMGUWkzMftkKDsc7AvfjzBFyC21-UDAPHkvmEbLeNrZ_0W00?></g></svg>